<svg width="26" height="21" viewBox="0 0 26 21" fill="none" xmlns="http://www.w3.org/2000/svg">
<path d="M26 3.93668C26 4.19734 25.8923 4.44734 25.7006 4.63166C25.509 4.81598 25.249 4.91953 24.9779 4.91953H21.6754C21.4478 5.76415 20.9349 6.51218 20.2173 7.04618C19.4997 7.58018 18.618 7.86993 17.7106 7.86993C16.8032 7.86993 15.9215 7.58018 15.2039 7.04618C14.4863 6.51218 13.9735 5.76415 13.7458 4.91953H1.02303C0.751948 4.91953 0.491971 4.81598 0.30029 4.63166C0.108608 4.44734 0.000922465 4.19734 0.000922465 3.93668C0.000922465 3.67601 0.108608 3.42602 0.30029 3.2417C0.491971 3.05738 0.751948 2.95383 1.02303 2.95383H13.7458C13.9728 2.10842 14.4856 1.35951 15.2034 0.824827C15.9213 0.290144 16.8035 0 17.7115 0C18.6196 0 19.5018 0.290144 20.2197 0.824827C20.9375 1.35951 21.4503 2.10842 21.6773 2.95383H24.9779C25.1121 2.95383 25.245 2.97925 25.369 3.02864C25.493 3.07804 25.6057 3.15043 25.7006 3.2417C25.7955 3.33296 25.8708 3.44131 25.9222 3.56056C25.9736 3.6798 26 3.80761 26 3.93668ZM26 10.5008C26 10.7615 25.8923 11.0115 25.7006 11.1958C25.509 11.3801 25.249 11.4837 24.9779 11.4837H12.054C11.8264 12.3283 11.3135 13.0763 10.5959 13.6103C9.87827 14.1443 8.99658 14.4341 8.0892 14.4341C7.18181 14.4341 6.30012 14.1443 5.58252 13.6103C4.86492 13.0763 4.35204 12.3283 4.12439 11.4837H1.02487C0.753792 11.4837 0.493816 11.3801 0.302135 11.1958C0.110453 11.0115 0.00276745 10.7615 0.00276745 10.5008C0.00276745 10.2402 0.110453 9.99017 0.302135 9.80585C0.493816 9.62153 0.753792 9.51798 1.02487 9.51798H4.12439C4.35204 8.67335 4.86492 7.92532 5.58252 7.39132C6.30012 6.85732 7.18181 6.56758 8.0892 6.56758C8.99658 6.56758 9.87827 6.85732 10.5959 7.39132C11.3135 7.92532 11.8264 8.67335 12.054 9.51798H24.9779C25.249 9.51798 25.509 9.62153 25.7006 9.80585C25.8923 9.99017 26 10.2402 26 10.5008ZM26 17.065C26.0002 17.1942 25.974 17.3222 25.9227 17.4416C25.8715 17.5611 25.7962 17.6696 25.7013 17.7611C25.6064 17.8526 25.4936 17.9251 25.3695 17.9746C25.2453 18.0241 25.1123 18.0496 24.9779 18.0496H21.6754C21.4478 18.8942 20.9349 19.6423 20.2173 20.1763C19.4997 20.7103 18.618 21 17.7106 21C16.8032 21 15.9215 20.7103 15.2039 20.1763C14.4863 19.6423 13.9735 18.8942 13.7458 18.0496H1.02303C0.751703 18.0496 0.491492 17.946 0.299637 17.7615C0.107783 17.577 0 17.3268 0 17.0659C0 16.805 0.107783 16.5547 0.299637 16.3703C0.491492 16.1858 0.751703 16.0821 1.02303 16.0821H13.7458C13.9728 15.2367 14.4856 14.4878 15.2034 13.9531C15.9213 13.4184 16.8035 13.1283 17.7115 13.1283C18.6196 13.1283 19.5018 13.4184 20.2197 13.9531C20.9375 14.4878 21.4503 15.2367 21.6773 16.0821H24.9779C25.249 16.0821 25.509 16.1857 25.7006 16.37C25.8923 16.5543 26 16.8043 26 17.065ZM10.1389 10.5008C10.1386 10.1115 10.0182 9.73101 9.79304 9.40744C9.56787 9.08387 9.24802 8.83174 8.87389 8.68292C8.49976 8.53409 8.08815 8.49524 7.69106 8.57128C7.29398 8.64732 6.92925 8.83484 6.64296 9.11014C6.35667 9.38543 6.16166 9.73615 6.08258 10.118C6.00351 10.4998 6.04391 10.8956 6.19868 11.2554C6.35345 11.6151 6.61565 11.9227 6.95214 12.1392C7.28863 12.3557 7.68432 12.4715 8.0892 12.4718C8.63203 12.4709 9.15236 12.2631 9.5362 11.894C9.92004 11.5249 10.1361 11.0246 10.1371 10.5026L10.1389 10.5008ZM19.7604 3.93668C19.7607 3.5467 19.6408 3.16537 19.4157 2.84097C19.1906 2.51657 18.8705 2.26366 18.4959 2.11426C18.1213 1.96486 17.709 1.92567 17.3112 2.00167C16.9134 2.07767 16.548 2.26542 16.2612 2.54118C15.9745 2.81694 15.7792 3.16831 15.7002 3.55081C15.6211 3.93332 15.6619 4.32977 15.8173 4.69C15.9726 5.05023 16.2356 5.35804 16.573 5.57448C16.9104 5.79093 17.3069 5.90627 17.7125 5.90592C18.2553 5.90498 18.7756 5.69721 19.1595 5.32811C19.5433 4.959 19.7594 4.45867 19.7604 3.93668ZM19.7604 17.065C19.7604 16.6751 19.6401 16.2939 19.4148 15.9698C19.1895 15.6456 18.8693 15.393 18.4946 15.2438C18.12 15.0947 17.7077 15.0558 17.3101 15.132C16.9124 15.2082 16.5472 15.3961 16.2606 15.6719C15.974 15.9477 15.7789 16.2991 15.7 16.6815C15.6212 17.064 15.662 17.4604 15.8174 17.8205C15.9729 18.1806 16.2359 18.4883 16.5732 18.7047C16.9105 18.921 17.307 19.0363 17.7125 19.036C18.2553 19.0351 18.7756 18.8273 19.1595 18.4582C19.5433 18.0891 19.7594 17.5887 19.7604 17.0668V17.065Z" fill="black"/>
</svg>
