<svg width="40" height="35" viewBox="0 0 40 35" fill="none" xmlns="http://www.w3.org/2000/svg">
<path d="M4.3923 19.7181L18.7664 33.2255C19.2615 33.6907 19.509 33.9233 19.8009 33.9806C19.9324 34.0065 20.0676 34.0065 20.1991 33.9806C20.491 33.9233 20.7385 33.6907 21.2337 33.2255L35.6077 19.7181C39.652 15.9178 40.143 9.66382 36.7417 5.27834L36.1022 4.45372C32.0331 -0.792571 23.8653 0.0872644 21.0062 6.07989C20.6023 6.92639 19.3978 6.92639 18.9938 6.07989C16.1348 0.0872644 7.96699 -0.792571 3.89791 4.45374L3.25835 5.27834C-0.143072 9.66382 0.348046 15.9178 4.3923 19.7181Z" fill="#002A3A" fill-opacity="0.27" stroke="white" stroke-width="2"/>
</svg>
