<svg width="181" height="81" viewBox="0 0 181 81" fill="none" xmlns="http://www.w3.org/2000/svg">
<path d="M64.0869 73.4234C72.1002 67.6825 77.7445 59.2161 79.962 49.6112L66.3265 46.4632C63.6216 58.2275 53.0853 67.0007 40.5 67.0007C25.8645 67.0007 14 55.1362 14 40.5007C14 25.8651 25.8645 14.0007 40.5 14.0007C52.609 14.0007 62.8211 22.1224 65.9861 33.2156L79.4404 29.3697C76.7311 19.8918 70.6582 11.7274 62.3599 6.40676C54.0616 1.08617 44.1077 -1.02528 34.3639 0.468213C24.6202 1.9617 15.7557 6.95759 9.43197 14.5194C3.10825 22.0812 -0.240495 31.6898 0.0134529 41.544C0.267401 51.3983 4.1066 60.8216 10.8114 68.0477C17.5162 75.2738 26.6263 79.8064 36.434 80.7961C46.2417 81.7857 56.0737 79.1644 64.0869 73.4234Z" fill="black"/>
<path d="M55 41.0007C55 48.7327 48.732 55.0007 41 55.0007C33.268 55.0007 27 48.7327 27 41.0007C27 33.2687 33.268 27.0007 41 27.0007C48.732 27.0007 55 33.2687 55 41.0007Z" fill="black"/>
<path d="M116.195 55.0006H109.013L97.0008 36.8146V55.0006H89.8188V25.5166H97.0008L109.013 43.7866V25.5166H116.195V55.0006Z" fill="black"/>
<path d="M142.317 43.4806C142.317 44.1206 142.277 44.7872 142.197 45.4806H126.717C126.824 46.8672 127.264 47.9339 128.037 48.6806C128.837 49.4006 129.81 49.7606 130.957 49.7606C132.664 49.7606 133.85 49.0406 134.517 47.6006H141.797C141.424 49.0672 140.744 50.3872 139.757 51.5606C138.797 52.7339 137.584 53.6539 136.117 54.3206C134.65 54.9872 133.01 55.3206 131.197 55.3206C129.01 55.3206 127.064 54.8539 125.357 53.9206C123.65 52.9872 122.317 51.6539 121.357 49.9206C120.397 48.1872 119.917 46.1606 119.917 43.8406C119.917 41.5206 120.384 39.4939 121.317 37.7606C122.277 36.0272 123.61 34.6939 125.317 33.7606C127.024 32.8272 128.984 32.3606 131.197 32.3606C133.357 32.3606 135.277 32.8139 136.957 33.7206C138.637 34.6272 139.944 35.9206 140.877 37.6006C141.837 39.2806 142.317 41.2406 142.317 43.4806ZM135.317 41.6806C135.317 40.5072 134.917 39.5739 134.117 38.8806C133.317 38.1872 132.317 37.8406 131.117 37.8406C129.97 37.8406 128.997 38.1739 128.197 38.8406C127.424 39.5072 126.944 40.4539 126.757 41.6806H135.317Z" fill="black"/>
<path d="M155.005 55.3206C153.059 55.3206 151.325 54.9872 149.805 54.3206C148.285 53.6539 147.085 52.7472 146.205 51.6006C145.325 50.4272 144.832 49.1206 144.725 47.6806H151.485C151.565 48.4539 151.925 49.0806 152.565 49.5606C153.205 50.0406 153.992 50.2806 154.925 50.2806C155.779 50.2806 156.432 50.1206 156.885 49.8006C157.365 49.4539 157.605 49.0139 157.605 48.4806C157.605 47.8406 157.272 47.3739 156.605 47.0806C155.939 46.7606 154.859 46.4139 153.365 46.0406C151.765 45.6672 150.432 45.2806 149.365 44.8806C148.299 44.4539 147.379 43.8006 146.605 42.9206C145.832 42.0139 145.445 40.8006 145.445 39.2806C145.445 38.0006 145.792 36.8406 146.485 35.8006C147.205 34.7339 148.245 33.8939 149.605 33.2806C150.992 32.6672 152.632 32.3606 154.525 32.3606C157.325 32.3606 159.525 33.0539 161.125 34.4406C162.752 35.8272 163.685 37.6672 163.925 39.9606H157.605C157.499 39.1872 157.152 38.5739 156.565 38.1206C156.005 37.6672 155.259 37.4406 154.325 37.4406C153.525 37.4406 152.912 37.6006 152.485 37.9206C152.059 38.2139 151.845 38.6272 151.845 39.1606C151.845 39.8006 152.179 40.2806 152.845 40.6006C153.539 40.9206 154.605 41.2406 156.045 41.5606C157.699 41.9872 159.045 42.4139 160.085 42.8406C161.125 43.2406 162.032 43.9072 162.805 44.8406C163.605 45.7472 164.019 46.9739 164.045 48.5206C164.045 49.8272 163.672 51.0006 162.925 52.0406C162.205 53.0539 161.152 53.8539 159.765 54.4406C158.405 55.0272 156.819 55.3206 155.005 55.3206Z" fill="black"/>
<path d="M180.67 49.2006V55.0006H177.19C174.71 55.0006 172.777 54.4006 171.39 53.2006C170.003 51.9739 169.31 49.9872 169.31 47.2406V38.3606H166.59V32.6806H169.31V27.2406H176.15V32.6806H180.63V38.3606H176.15V47.3206C176.15 47.9872 176.31 48.4672 176.63 48.7606C176.95 49.0539 177.483 49.2006 178.23 49.2006H180.67Z" fill="black"/>
</svg>
