<svg width="181" height="81" viewBox="0 0 181 81" fill="none" xmlns="http://www.w3.org/2000/svg">
<path d="M64.0869 73.423C72.1002 67.6821 77.7445 59.2157 79.962 49.6108L66.3265 46.4628C63.6216 58.2271 53.0853 67.0003 40.5 67.0003C25.8645 67.0003 14 55.1358 14 40.5003C14 25.8647 25.8645 14.0003 40.5 14.0003C52.609 14.0003 62.8211 22.122 65.9861 33.2152L79.4404 29.3693C76.7311 19.8914 70.6582 11.727 62.3599 6.40637C54.0616 1.08577 44.1077 -1.02567 34.3639 0.467816C24.6202 1.96131 15.7557 6.95719 9.43197 14.519C3.10825 22.0808 -0.240495 31.6894 0.0134529 41.5436C0.267401 51.3979 4.1066 60.8212 10.8114 68.0473C17.5162 75.2734 26.6263 79.806 36.434 80.7957C46.2417 81.7853 56.0737 79.164 64.0869 73.423Z" fill="url(#paint0_linear_562_605)"/>
<path d="M55 41.0003C55 48.7323 48.732 55.0003 41 55.0003C33.268 55.0003 27 48.7323 27 41.0003C27 33.2683 33.268 27.0003 41 27.0003C48.732 27.0003 55 33.2683 55 41.0003Z" fill="#002A3A"/>
<path d="M116.195 55.0002H109.013L97.0008 36.8142V55.0002H89.8188V25.5162H97.0008L109.013 43.7862V25.5162H116.195V55.0002Z" fill="#002A3A"/>
<path d="M142.317 43.4802C142.317 44.1202 142.277 44.7868 142.197 45.4802H126.717C126.824 46.8668 127.264 47.9335 128.037 48.6802C128.837 49.4002 129.81 49.7602 130.957 49.7602C132.664 49.7602 133.85 49.0402 134.517 47.6002H141.797C141.424 49.0668 140.744 50.3869 139.757 51.5602C138.797 52.7335 137.584 53.6535 136.117 54.3202C134.65 54.9869 133.01 55.3202 131.197 55.3202C129.01 55.3202 127.064 54.8535 125.357 53.9202C123.65 52.9868 122.317 51.6535 121.357 49.9202C120.397 48.1868 119.917 46.1602 119.917 43.8402C119.917 41.5202 120.384 39.4935 121.317 37.7602C122.277 36.0268 123.61 34.6935 125.317 33.7602C127.024 32.8268 128.984 32.3602 131.197 32.3602C133.357 32.3602 135.277 32.8135 136.957 33.7202C138.637 34.6269 139.944 35.9202 140.877 37.6002C141.837 39.2802 142.317 41.2402 142.317 43.4802ZM135.317 41.6802C135.317 40.5069 134.917 39.5735 134.117 38.8802C133.317 38.1868 132.317 37.8402 131.117 37.8402C129.97 37.8402 128.997 38.1735 128.197 38.8402C127.424 39.5069 126.944 40.4535 126.757 41.6802H135.317Z" fill="#002A3A"/>
<path d="M155.005 55.3202C153.059 55.3202 151.325 54.9869 149.805 54.3202C148.285 53.6535 147.085 52.7468 146.205 51.6002C145.325 50.4268 144.832 49.1202 144.725 47.6802H151.485C151.565 48.4535 151.925 49.0802 152.565 49.5602C153.205 50.0402 153.992 50.2802 154.925 50.2802C155.779 50.2802 156.432 50.1202 156.885 49.8002C157.365 49.4535 157.605 49.0135 157.605 48.4802C157.605 47.8402 157.272 47.3735 156.605 47.0802C155.939 46.7602 154.859 46.4135 153.365 46.0402C151.765 45.6669 150.432 45.2802 149.365 44.8802C148.299 44.4535 147.379 43.8002 146.605 42.9202C145.832 42.0135 145.445 40.8002 145.445 39.2802C145.445 38.0002 145.792 36.8402 146.485 35.8002C147.205 34.7335 148.245 33.8935 149.605 33.2802C150.992 32.6668 152.632 32.3602 154.525 32.3602C157.325 32.3602 159.525 33.0535 161.125 34.4402C162.752 35.8268 163.685 37.6668 163.925 39.9602H157.605C157.499 39.1868 157.152 38.5735 156.565 38.1202C156.005 37.6668 155.259 37.4402 154.325 37.4402C153.525 37.4402 152.912 37.6002 152.485 37.9202C152.059 38.2135 151.845 38.6269 151.845 39.1602C151.845 39.8002 152.179 40.2802 152.845 40.6002C153.539 40.9202 154.605 41.2402 156.045 41.5602C157.699 41.9868 159.045 42.4135 160.085 42.8402C161.125 43.2402 162.032 43.9068 162.805 44.8402C163.605 45.7468 164.019 46.9735 164.045 48.5202C164.045 49.8269 163.672 51.0002 162.925 52.0402C162.205 53.0535 161.152 53.8535 159.765 54.4402C158.405 55.0268 156.819 55.3202 155.005 55.3202Z" fill="#002A3A"/>
<path d="M180.67 49.2002V55.0002H177.19C174.71 55.0002 172.777 54.4002 171.39 53.2002C170.003 51.9735 169.31 49.9868 169.31 47.2402V38.3602H166.59V32.6802H169.31V27.2402H176.15V32.6802H180.63V38.3602H176.15V47.3202C176.15 47.9869 176.31 48.4668 176.63 48.7602C176.95 49.0535 177.483 49.2002 178.23 49.2002H180.67Z" fill="#002A3A"/>
<defs>
<linearGradient id="paint0_linear_562_605" x1="38" y1="1.67893e-06" x2="38" y2="81" gradientUnits="userSpaceOnUse">
<stop offset="0.221804" stop-color="#FF8238"/>
<stop offset="0.950985" stop-color="#002A3A"/>
</linearGradient>
</defs>
</svg>
