<svg width="185" height="81" viewBox="0 0 185 81" fill="none" xmlns="http://www.w3.org/2000/svg">
<path fill-rule="evenodd" clip-rule="evenodd" d="M64.0869 73.4228C72.1002 67.6819 77.7445 59.2155 79.962 49.6106L66.3265 46.4626C63.6216 58.2269 53.0853 67.0001 40.5 67.0001C25.8645 67.0001 14 55.1356 14 40.5001C14 25.8646 25.8645 14.0001 40.5 14.0001C52.609 14.0001 62.8211 22.1218 65.9861 33.215L79.4404 29.3691C76.7311 19.8912 70.6582 11.7268 62.3599 6.40618C54.0616 1.08559 44.1077 -1.02586 34.3639 0.467633C24.6202 1.96112 15.7557 6.95701 9.43197 14.5188C3.10825 22.0806 -0.240495 31.6892 0.0134529 41.5435C0.267401 51.3977 4.1066 60.821 10.8114 68.0471C17.5162 75.2732 26.6263 79.8058 36.434 80.7955C46.2417 81.7851 56.0737 79.1638 64.0869 73.4228Z" fill="url(#paint0_linear_404_210)"/>
<circle cx="41" cy="41.0001" r="14" fill="#002A3A"/>
<path d="M101.805 25.4401H108.485V53.0001H102.645L94.2053 37.9601V53.0001H87.5253V25.4401H93.5653L101.805 40.2801V25.4401Z" fill="#002A3A"/>
<path d="M132.815 43.4001C132.815 43.8801 132.735 44.9201 132.695 45.4401H119.335C119.535 47.2001 121.575 48.2801 123.615 48.2801C124.695 48.2801 126.095 48.0001 127.175 46.7201C127.895 47.3201 130.535 49.1601 131.575 49.8801C129.615 52.4801 126.095 53.3601 123.135 53.3601C117.815 53.3601 113.215 49.4401 113.215 43.5601C113.215 37.6401 117.815 33.8801 123.135 33.8801C128.455 33.8801 132.815 37.5201 132.815 43.4001ZM119.335 41.8801H126.775C126.135 39.4801 124.055 39.1201 123.055 39.1201C122.135 39.1201 119.775 39.4801 119.335 41.8801ZM143.647 46.3601L141.287 45.7201C135.447 44.1201 135.527 40.8001 135.527 39.4401C135.527 36.6801 138.967 33.8801 143.127 33.8801C147.087 33.8801 151.287 35.4801 151.287 40.3201H145.327C145.327 39.2001 144.687 38.6401 143.447 38.6401C142.647 38.6401 141.887 38.9201 141.887 39.6801C141.887 40.1601 142.127 40.6001 143.287 40.8801L146.607 41.8001C151.407 43.0801 151.807 46.2801 151.807 47.4401C151.807 51.6001 147.327 53.3601 143.367 53.3601C139.407 53.3601 135.247 51.0801 135.247 46.7601H141.207C141.207 47.5601 141.807 48.6801 143.367 48.6801C144.447 48.6801 145.327 48.2001 145.327 47.4401C145.327 46.8401 145.047 46.7201 143.647 46.3601ZM163.468 27.6801V34.3601H167.388V39.0401H163.468V53.0001H157.188V39.0401H153.788V34.3601H157.188V27.6801H163.468Z" fill="#002A3A"/>
<defs>
<linearGradient id="paint0_linear_404_210" x1="40.5" y1="0.000106812" x2="40.5" y2="81.0001" gradientUnits="userSpaceOnUse">
<stop offset="0.28" stop-color="#FF8238"/>
<stop offset="1" stop-color="#002A3A"/>
</linearGradient>
</defs>
</svg>
