<svg width="21" height="20" viewBox="0 0 21 20" fill="none" xmlns="http://www.w3.org/2000/svg">
<path d="M9.62208 1.33552C9.89104 0.562878 10.0255 0.176571 10.2244 0.0695022C10.3964 -0.0231674 10.6036 -0.0231674 10.7757 0.0695022C10.9745 0.176571 11.1089 0.562878 11.3779 1.33552L13.1558 6.44342C13.2323 6.66332 13.2706 6.77327 13.3396 6.85514C13.4005 6.92747 13.4782 6.98385 13.5659 7.01936C13.6651 7.05956 13.7816 7.06193 14.0147 7.06667L19.4284 7.17685C20.2474 7.19351 20.6568 7.20185 20.8202 7.35762C20.9616 7.49243 21.0256 7.68924 20.9906 7.88132C20.9501 8.10329 20.6238 8.35031 19.9711 8.84458L15.6561 12.1115C15.4703 12.2523 15.3775 12.3226 15.3208 12.4133C15.2707 12.4936 15.2411 12.5848 15.2343 12.679C15.2268 12.7857 15.2605 12.8971 15.328 13.12L16.8961 18.296C17.1332 19.079 17.2518 19.4704 17.154 19.6737C17.0693 19.8497 16.9016 19.9713 16.7078 19.9974C16.484 20.0275 16.1479 19.7939 15.4755 19.3267L11.0309 16.238C10.8395 16.105 10.7439 16.0385 10.6399 16.0126C10.548 15.9899 10.452 15.9899 10.3602 16.0126C10.2562 16.0385 10.1605 16.105 9.96911 16.238L5.5245 19.3267C4.8522 19.7939 4.51605 20.0275 4.29217 19.9974C4.09842 19.9713 3.93077 19.8497 3.84609 19.6737C3.74824 19.4704 3.86684 19.079 4.10402 18.296L5.67203 13.12C5.73953 12.8971 5.77328 12.7857 5.76568 12.679C5.75896 12.5848 5.72929 12.4936 5.67923 12.4133C5.62257 12.3226 5.52969 12.2523 5.34393 12.1115L1.02899 8.84458C0.376292 8.35031 0.0499449 8.10329 0.00943326 7.88132C-0.0256412 7.68924 0.0383968 7.49243 0.179822 7.35762C0.343216 7.20185 0.752666 7.19352 1.57155 7.17685L6.98528 7.06667C7.21834 7.06193 7.33488 7.05956 7.43416 7.01936C7.52187 6.98385 7.59957 6.92747 7.66048 6.85514C7.72944 6.77327 7.76771 6.66332 7.84425 6.44342L9.62208 1.33552Z" fill="#002A3A"/>
</svg>
